<svg id="Layer_1" data-name="Layer 1" xmlns="http://www.w3.org/2000/svg" xmlns:xlink="http://www.w3.org/1999/xlink" width="7.1981in" height="1.3194in" viewBox="0 0 518.2658 95">
  <defs>
    <linearGradient id="linear-gradient" x1="168.3126" y1="47.5" x2="313.906" y2="47.5" gradientUnits="userSpaceOnUse">
      <stop offset="0.2083" stop-color="#5fa3ca" stop-opacity="0"/>
      <stop offset="1" stop-color="#5fa3ca"/>
    </linearGradient>
  </defs>
  <title>Artboard 1</title>
  <path d="M312.9907,46.1566l-40.5618-28.37c-1.395-.7389-3.2885.0346-3.2885,1.3434V32.4365H168.3126v30.127H269.14V75.87c0,1.3088,1.8935,2.0823,3.2885,1.3434l40.5618-28.37A1.4435,1.4435,0,0,0,312.9907,46.1566Z" style="opacity: 0.5;fill: url(#linear-gradient)"/>
  <g>
    <rect x="6.6316" width="192" height="95" rx="2.2439" style="fill: #fff"/>
    <rect x="9.1316" y="2.5" width="187" height="90" style="fill: #fff;stroke: #7f7f7f;stroke-miterlimit: 10"/>
    <line x1="71.465" y1="3" x2="71.465" y2="93" style="fill: #fff;stroke: #7f7f7f;stroke-miterlimit: 10"/>
    <line x1="133.7983" y1="3" x2="133.7983" y2="93" style="fill: #fff;stroke: #7f7f7f;stroke-miterlimit: 10"/>
    <line x1="9.6316" y1="32.5" x2="196.6316" y2="32.5" style="fill: none;stroke: #7f7f7f;stroke-miterlimit: 10"/>
    <line x1="9.6316" y1="62.5" x2="196.6316" y2="62.5" style="fill: none;stroke: #7f7f7f;stroke-miterlimit: 10"/>
    <g>
      <path d="M32.5133,20.3756h-3.414l-.6719,2.375H26.1149l3.7266-11.375h1.9921L35.49,22.7506H33.1774Zm-2.875-1.8672h2.3594l-1.1641-4.1875Z" style="fill: #7f7f7f"/>
      <path d="M50.81,16.4069H53.67v1.9843H50.81V21.61H48.74V18.3912H45.8727V16.4069H48.74V13.3287h2.07Z" style="fill: #7f7f7f"/>
    </g>
    <g>
      <path d="M89.237,22.7506V11.3756h3.82a7.0817,7.0817,0,0,1,1.6914.1875,3.7923,3.7923,0,0,1,1.3008.57,2.5972,2.5972,0,0,1,.832.9688,3.0577,3.0577,0,0,1,.293,1.3828,2.5085,2.5085,0,0,1-1.6563,2.3906,2.6046,2.6046,0,0,1,.8516.375,2.4027,2.4027,0,0,1,.5976.59,2.4418,2.4418,0,0,1,.3516.7422,3.0717,3.0717,0,0,1,.1133.8321A3.4905,3.4905,0,0,1,97.151,20.86a2.8,2.8,0,0,1-.8047,1.0469,3.5238,3.5238,0,0,1-1.2734.6328,6.2344,6.2344,0,0,1-1.6875.2109ZM91.44,16.149h1.6328a2.3139,2.3139,0,0,0,1.4062-.3828,1.3185,1.3185,0,0,0,.5-1.1015A1.3034,1.3034,0,0,0,94.487,13.52a2.4913,2.4913,0,0,0-1.4219-.3554H91.44Zm0,1.586v3.2422h1.9531a1.9867,1.9867,0,0,0,1.3711-.4414,1.4709,1.4709,0,0,0,.4727-1.1368,1.644,1.644,0,0,0-.4219-1.2187,1.815,1.815,0,0,0-1.3281-.4453Z" style="fill: #7f7f7f"/>
      <path d="M116.0573,17.149h-7.3907V15.3678h7.3907Zm0,3.3672h-7.3907V18.7428h7.3907Z" style="fill: #7f7f7f"/>
    </g>
    <path d="M169.0861,19.1881a4.3278,4.3278,0,0,1-.3711,1.5469,3.6047,3.6047,0,0,1-.8477,1.1719,3.6923,3.6923,0,0,1-1.2656.746,4.8146,4.8146,0,0,1-1.625.2618,4.1274,4.1274,0,0,1-1.7891-.3711,3.6544,3.6544,0,0,1-1.3125-1.0391,4.7286,4.7286,0,0,1-.8125-1.6055,7.1557,7.1557,0,0,1-.2812-2.0625V16.3053a6.8219,6.8219,0,0,1,.2969-2.07,4.8237,4.8237,0,0,1,.8437-1.6094,3.7956,3.7956,0,0,1,1.3242-1.043,4.0071,4.0071,0,0,1,1.7461-.3711,4.8711,4.8711,0,0,1,1.668.2657,3.4068,3.4068,0,0,1,2.0586,1.9609,5.3652,5.3652,0,0,1,.375,1.6016h-2.1875a3.7422,3.7422,0,0,0-.1524-.8907,1.7037,1.7037,0,0,0-.3515-.6367,1.4506,1.4506,0,0,0-.5781-.3828,2.4,2.4,0,0,0-.8321-.1289,1.6359,1.6359,0,0,0-1.5039.8594,3.2669,3.2669,0,0,0-.3633,1.0351,7.4853,7.4853,0,0,0-.1171,1.3946v1.5468a5.0516,5.0516,0,0,0,.4726,2.4844,1.6075,1.6075,0,0,0,1.4961.8047,1.9384,1.9384,0,0,0,1.3594-.457,2.0824,2.0824,0,0,0,.5547-1.4805Z" style="fill: #7f7f7f"/>
    <g>
      <g>
        <rect x="72.4347" y="33.5001" width="60.3652" height="27.9995" style="fill: #dfedf4"/>
        <path d="M132.3,34V61H72.9346V34H132.3m1-1H71.9346V62H133.3V33Z" style="fill: #5fa3ca"/>
      </g>
      <path d="M101.3761,50.5006q0-.7411.0376-1.2568a3.74,3.74,0,0,1,.1773-.9292,2.4773,2.4773,0,0,1,.4189-.7627,4.8374,4.8374,0,0,1,.7842-.7466q.3648-.3326.7305-.7036a7.6885,7.6885,0,0,0,.6606-.7627,4.1512,4.1512,0,0,0,.478-.8,1.9856,1.9856,0,0,0,.1826-.8164,1.7846,1.7846,0,0,0-.5263-1.4287,2.3007,2.3007,0,0,0-1.5362-.4512,2.7845,2.7845,0,0,0-.7519.1021,1.8243,1.8243,0,0,0-.65.3276,1.6888,1.6888,0,0,0-.4619.58,1.9725,1.9725,0,0,0-.188.8486H97.7345a4.3821,4.3821,0,0,1,.4082-1.9067,3.8678,3.8678,0,0,1,1.0742-1.3482,4.5627,4.5627,0,0,1,1.59-.8,7.1151,7.1151,0,0,1,1.9765-.2632,7.8394,7.8394,0,0,1,2.1377.2686,4.3779,4.3779,0,0,1,1.5953.8,3.4859,3.4859,0,0,1,.9936,1.3159,4.49,4.49,0,0,1,.3438,1.8154,3.63,3.63,0,0,1-.2579,1.3911,5.2529,5.2529,0,0,1-.666,1.1709,8.0627,8.0627,0,0,1-.9292,1.0313q-.5214.4893-1.0473.9507a5.2544,5.2544,0,0,0-.5049.5693,1.704,1.704,0,0,0-.2632.5049,2.4512,2.4512,0,0,0-.102.5635c-.0147.2041-.0215.45-.0215.7363Zm-.44,3.2549a1.8148,1.8148,0,0,1,.1182-.6611,1.5088,1.5088,0,0,1,.3437-.5313,1.5551,1.5551,0,0,1,.5479-.35,2.2127,2.2127,0,0,1,1.4555,0,1.5465,1.5465,0,0,1,.5532.35,1.58,1.58,0,0,1,.3492.5313,1.7583,1.7583,0,0,1,.1235.6611,1.6839,1.6839,0,0,1-.1235.6445,1.4863,1.4863,0,0,1-.3492.5156,1.6065,1.6065,0,0,1-.5532.3379,2.1959,2.1959,0,0,1-1.4555,0,1.6158,1.6158,0,0,1-.5479-.3379,1.4205,1.4205,0,0,1-.3437-.5156A1.7376,1.7376,0,0,1,100.9357,53.7555Z" style="fill: #5fa3ca"/>
    </g>
    <path d="M43.8336,52.7506H36.3805V51.7115l3.7266-4.1406q.4995-.5544.8359-.9844a6.3746,6.3746,0,0,0,.5391-.7929,3.0172,3.0172,0,0,0,.289-.6875,2.5964,2.5964,0,0,0,.086-.668,2.2848,2.2848,0,0,0-.1367-.793,1.853,1.853,0,0,0-.3985-.6445,1.9249,1.9249,0,0,0-.6328-.4336,2.107,2.107,0,0,0-.84-.16,2.6974,2.6974,0,0,0-.9883.164,1.8461,1.8461,0,0,0-.6953.4649,1.9141,1.9141,0,0,0-.4141.73,3.1577,3.1577,0,0,0-.1367.961H36.1618a3.67,3.67,0,0,1,.25-1.3555,3.246,3.246,0,0,1,.7226-1.1133,3.4582,3.4582,0,0,1,1.1563-.7578,4.0656,4.0656,0,0,1,1.5586-.2812,4.1614,4.1614,0,0,1,1.4492.2382,3.1527,3.1527,0,0,1,1.09.66,2.8689,2.8689,0,0,1,.6836,1,3.2727,3.2727,0,0,1,.2383,1.2578,3.0528,3.0528,0,0,1-.1719,1.0039,5.1505,5.1505,0,0,1-.4648.98,8.244,8.244,0,0,1-.68.957q-.3867.4731-.8164.9414l-3.0547,3.3125h5.7109Z" style="fill: #7f7f7f"/>
    <path d="M167.383,48.93h1.5859v1.18H167.383v2.6406h-1.4454V50.11H160.75v-.8516l5.0938-7.8828h1.5391Zm-5.0313,0h3.5859V43.2975l-.2343.4375Z" style="fill: #7f7f7f"/>
    <path d="M37.3727,77.0475l.57-5.6719h5.836v1.4063H39.1618l-.32,3.0312a4.0614,4.0614,0,0,1,.8046-.3437,3.61,3.61,0,0,1,1.086-.1485,3.5056,3.5056,0,0,1,1.414.2735,3.0162,3.0162,0,0,1,1.0625.77,3.43,3.43,0,0,1,.6719,1.1992,4.922,4.922,0,0,1,.2344,1.5625,5.006,5.006,0,0,1-.2188,1.5078,3.3,3.3,0,0,1-.66,1.1992,3.0193,3.0193,0,0,1-1.1133.7891,4.014,4.014,0,0,1-1.5781.2852,4.3316,4.3316,0,0,1-1.3125-.1954,3.2859,3.2859,0,0,1-1.0977-.5859,3.0619,3.0619,0,0,1-.789-.9844,3.7653,3.7653,0,0,1-.3868-1.3828h1.375a2.2532,2.2532,0,0,0,.7149,1.4688,2.2111,2.2111,0,0,0,1.4961.5,2.1524,2.1524,0,0,0,.914-.1836,1.8,1.8,0,0,0,.668-.5235,2.33,2.33,0,0,0,.4063-.8164,3.86,3.86,0,0,0,.1367-1.0625,3.1468,3.1468,0,0,0-.1524-.9922,2.3771,2.3771,0,0,0-.4414-.8007,2.06,2.06,0,0,0-.7109-.5352,2.288,2.288,0,0,0-.9688-.1953,3.3582,3.3582,0,0,0-.6211.0508,2.1169,2.1169,0,0,0-.8671.3711q-.1839.1332-.3789.3047Z" style="fill: #7f7f7f"/>
    <path d="M106.3932,72.1881l-4.7109,10.5625h-1.5157l4.6954-10.1094H98.7057V71.3756h7.6875Z" style="fill: #7f7f7f"/>
    <g>
      <g>
        <rect x="134.7824" y="63.4996" width="60.3652" height="28" style="fill: #dfedf4"/>
        <path d="M194.6477,64V91H135.2822V64h59.3655m1-1H134.2822V92h61.3655V63Z" style="fill: #5fa3ca"/>
      </g>
      <path d="M163.7238,80.5006q0-.7412.0376-1.2568a3.7532,3.7532,0,0,1,.1772-.93,2.4833,2.4833,0,0,1,.419-.7627,4.8144,4.8144,0,0,1,.7841-.7461q.3648-.3325.7305-.7041a7.6767,7.6767,0,0,0,.6607-.7627,4.1429,4.1429,0,0,0,.478-.8,1.9874,1.9874,0,0,0,.1826-.8164,1.7846,1.7846,0,0,0-.5264-1.4287,2.3,2.3,0,0,0-1.5361-.4512,2.8048,2.8048,0,0,0-.752.1016,1.8269,1.8269,0,0,0-.65.3281,1.6911,1.6911,0,0,0-.4619.58,1.9754,1.9754,0,0,0-.188.8486h-2.997a4.3815,4.3815,0,0,1,.4082-1.9072,3.8683,3.8683,0,0,1,1.0742-1.3477,4.5555,4.5555,0,0,1,1.59-.8008,7.1342,7.1342,0,0,1,1.9766-.2627,7.84,7.84,0,0,1,2.1377.2686,4.369,4.369,0,0,1,1.5952.8,3.4878,3.4878,0,0,1,.9937,1.3164,4.488,4.488,0,0,1,.3437,1.8154,3.6285,3.6285,0,0,1-.2578,1.3907,5.2613,5.2613,0,0,1-.666,1.1709,8.0093,8.0093,0,0,1-.9292,1.0312q-.5215.4893-1.0474.9512a5.2181,5.2181,0,0,0-.5049.5693,1.7059,1.7059,0,0,0-.2631.5049,2.4511,2.4511,0,0,0-.1021.5635c-.0146.2041-.0215.45-.0215.7363Zm-.4405,3.2549a1.8148,1.8148,0,0,1,.1182-.6611,1.509,1.509,0,0,1,.3438-.5313,1.5556,1.5556,0,0,1,.5478-.35,2.213,2.213,0,0,1,1.4556,0,1.5483,1.5483,0,0,1,.5532.35,1.5783,1.5783,0,0,1,.3491.5313,1.7563,1.7563,0,0,1,.1236.6611,1.6821,1.6821,0,0,1-.1236.6445,1.4847,1.4847,0,0,1-.3491.5156,1.6084,1.6084,0,0,1-.5532.3379,2.1962,2.1962,0,0,1-1.4556,0,1.6163,1.6163,0,0,1-.5478-.3379,1.4208,1.4208,0,0,1-.3438-.5156A1.7376,1.7376,0,0,1,163.2833,83.7555Z" style="fill: #5fa3ca"/>
    </g>
  </g>
  <g>
    <rect x="319.6341" width="192" height="95" rx="2.2439" style="fill: #fff"/>
    <rect x="322.1341" y="2.5" width="187" height="90" style="fill: #fff;stroke: #7f7f7f;stroke-miterlimit: 10"/>
    <g>
      <rect x="384.9371" y="33" width="61.3655" height="29" style="fill: #d1f0cc"/>
      <path d="M420.7594,55.2486h-10.666v-2.041l5.0586-5.4355c.3945-.43.7266-.82,1-1.1709a8.8536,8.8536,0,0,0,.66-.9614,3.85,3.85,0,0,0,.3652-.8111,2.5364,2.5364,0,0,0,.1133-.73,2.7113,2.7113,0,0,0-.15-.9346,1.9872,1.9872,0,0,0-.4248-.6929,1.838,1.838,0,0,0-.6553-.435,2.2822,2.2822,0,0,0-.8437-.15,2.33,2.33,0,0,0-1.8418.6875,2.8109,2.8109,0,0,0-.6075,1.9228h-2.9961a4.95,4.95,0,0,1,1.52-3.5986,5.2611,5.2611,0,0,1,1.7509-1.1011,6.7259,6.7259,0,0,1,4.3829-.07,4.2417,4.2417,0,0,1,1.5361.9346,3.96,3.96,0,0,1,.9394,1.4448,5.1829,5.1829,0,0,1,.3223,1.8638,4.5132,4.5132,0,0,1-.2412,1.477,6.3545,6.3545,0,0,1-.6875,1.3911,12.45,12.45,0,0,1-1.0693,1.4019q-.6227.7147-1.3848,1.4985l-2.9434,3.1152h6.8633Z" style="fill: #4e9e3e"/>
    </g>
    <line x1="384.4675" y1="3" x2="384.4675" y2="93" style="fill: #fff;stroke: #7f7f7f;stroke-miterlimit: 10"/>
    <line x1="446.8008" y1="3" x2="446.8008" y2="93" style="fill: #fff;stroke: #7f7f7f;stroke-miterlimit: 10"/>
    <line x1="322.6341" y1="32.5" x2="509.6341" y2="32.5" style="fill: none;stroke: #7f7f7f;stroke-miterlimit: 10"/>
    <line x1="322.6341" y1="62.5" x2="509.6341" y2="62.5" style="fill: none;stroke: #7f7f7f;stroke-miterlimit: 10"/>
    <g>
      <path d="M345.5153,20.3756h-3.4141l-.6719,2.375h-2.3125l3.7266-11.375h1.9922l3.6562,11.375h-2.3125Zm-2.875-1.8672H345l-1.1641-4.1875Z" style="fill: #7f7f7f"/>
      <path d="M363.8122,16.4069h2.8593v1.9843h-2.8593V21.61h-2.07V18.3912h-2.8671V16.4069h2.8671V13.3287h2.07Z" style="fill: #7f7f7f"/>
    </g>
    <g>
      <path d="M402.24,22.7506V11.3756h3.82a7.0847,7.0847,0,0,1,1.6914.1875,3.7923,3.7923,0,0,1,1.3008.57,2.5963,2.5963,0,0,1,.832.9688,3.0577,3.0577,0,0,1,.293,1.3828,2.5085,2.5085,0,0,1-1.6563,2.3906,2.6074,2.6074,0,0,1,.8516.375,2.4015,2.4015,0,0,1,.5977.59,2.4653,2.4653,0,0,1,.3515.7422,3.0717,3.0717,0,0,1,.1133.8321,3.4905,3.4905,0,0,1-.2812,1.4453,2.8013,2.8013,0,0,1-.8047,1.0469,3.5284,3.5284,0,0,1-1.2735.6328,6.2344,6.2344,0,0,1-1.6875.2109Zm2.2031-6.6016h1.6328a2.3142,2.3142,0,0,0,1.4063-.3828,1.32,1.32,0,0,0,.5-1.1015A1.3035,1.3035,0,0,0,407.49,13.52a2.4919,2.4919,0,0,0-1.4219-.3554h-1.625Zm0,1.586v3.2422h1.9531a1.9865,1.9865,0,0,0,1.3711-.4414,1.4723,1.4723,0,0,0,.4727-1.1368,1.6436,1.6436,0,0,0-.4219-1.2187,1.8158,1.8158,0,0,0-1.3281-.4453Z" style="fill: #7f7f7f"/>
      <path d="M429.06,17.149H421.67V15.3678H429.06Zm0,3.3672H421.67V18.7428H429.06Z" style="fill: #7f7f7f"/>
    </g>
    <path d="M482.0885,19.1881a4.3152,4.3152,0,0,1-.3711,1.5469,3.5957,3.5957,0,0,1-.8476,1.1719,3.6928,3.6928,0,0,1-1.2657.746,4.8125,4.8125,0,0,1-1.625.2618,4.1269,4.1269,0,0,1-1.789-.3711,3.663,3.663,0,0,1-1.3125-1.0391,4.7268,4.7268,0,0,1-.8125-1.6055,7.1556,7.1556,0,0,1-.2813-2.0625V16.3053a6.825,6.825,0,0,1,.2969-2.07,4.8421,4.8421,0,0,1,.8438-1.6094,3.7938,3.7938,0,0,1,1.3242-1.043,4.01,4.01,0,0,1,1.7461-.3711,4.8705,4.8705,0,0,1,1.6679.2657,3.4068,3.4068,0,0,1,2.0586,1.9609,5.3289,5.3289,0,0,1,.375,1.6016h-2.1875a3.6978,3.6978,0,0,0-.1523-.8907,1.7052,1.7052,0,0,0-.3516-.6367,1.4471,1.4471,0,0,0-.5781-.3828,2.3954,2.3954,0,0,0-.832-.1289,1.6359,1.6359,0,0,0-1.5039.8594,3.262,3.262,0,0,0-.3633,1.0351A7.4848,7.4848,0,0,0,476.01,16.29v1.5468a5.05,5.05,0,0,0,.4727,2.4844,1.6078,1.6078,0,0,0,1.496.8047,1.9367,1.9367,0,0,0,1.3594-.457,2.08,2.08,0,0,0,.5547-1.4805Z" style="fill: #7f7f7f"/>
    <path d="M356.8356,52.7506h-7.4531V51.7115l3.7265-4.1406q.5-.5544.836-.9844a6.3619,6.3619,0,0,0,.539-.7929,2.9911,2.9911,0,0,0,.2891-.6875,2.579,2.579,0,0,0,.0859-.668,2.2848,2.2848,0,0,0-.1367-.793,1.8367,1.8367,0,0,0-.3984-.6445,1.926,1.926,0,0,0-.6328-.4336,2.1058,2.1058,0,0,0-.84-.16,2.7,2.7,0,0,0-.9883.164,1.8509,1.8509,0,0,0-.6953.4649,1.9218,1.9218,0,0,0-.414.73,3.17,3.17,0,0,0-.1368.961h-1.4531a3.67,3.67,0,0,1,.25-1.3555,3.2521,3.2521,0,0,1,.7227-1.1133,3.4628,3.4628,0,0,1,1.1562-.7578,4.0695,4.0695,0,0,1,1.5586-.2812,4.1614,4.1614,0,0,1,1.4492.2382,3.1541,3.1541,0,0,1,1.09.66,2.8689,2.8689,0,0,1,.6836,1,3.2634,3.2634,0,0,1,.2383,1.2578A3.0554,3.0554,0,0,1,356.14,45.38a5.1269,5.1269,0,0,1-.4649.98,8.232,8.232,0,0,1-.68.957q-.3867.4731-.8164.9414l-3.0546,3.3125h5.7109Z" style="fill: #7f7f7f"/>
    <path d="M480.3854,48.93h1.5859v1.18h-1.5859v2.6406H478.94V50.11h-5.1875v-.8516l5.0937-7.8828h1.5391Zm-5.0313,0h3.586V43.2975l-.2344.4375Z" style="fill: #7f7f7f"/>
    <path d="M350.3747,77.0475l.57-5.6719h5.8359v1.4063h-4.6172l-.32,3.0312a4.0624,4.0624,0,0,1,.8047-.3437,3.6114,3.6114,0,0,1,1.0859-.1485,3.5044,3.5044,0,0,1,1.4141.2735,3.0117,3.0117,0,0,1,1.0625.77,3.4238,3.4238,0,0,1,.6719,1.1992,4.9249,4.9249,0,0,1,.2343,1.5625,5.0061,5.0061,0,0,1-.2187,1.5078,3.2908,3.2908,0,0,1-.66,1.1992,3.0107,3.0107,0,0,1-1.1132.7891,4.0131,4.0131,0,0,1-1.5782.2852,4.3326,4.3326,0,0,1-1.3125-.1954,3.29,3.29,0,0,1-1.0976-.5859,3.07,3.07,0,0,1-.7891-.9844,3.7652,3.7652,0,0,1-.3867-1.3828h1.375a2.2578,2.2578,0,0,0,.7148,1.4688,2.2113,2.2113,0,0,0,1.4961.5,2.1525,2.1525,0,0,0,.9141-.1836,1.8007,1.8007,0,0,0,.668-.5235,2.3211,2.3211,0,0,0,.4062-.8164,3.86,3.86,0,0,0,.1367-1.0625,3.15,3.15,0,0,0-.1523-.9922,2.3788,2.3788,0,0,0-.4414-.8007,2.056,2.056,0,0,0-.711-.5352,2.2875,2.2875,0,0,0-.9687-.1953,3.3644,3.3644,0,0,0-.6211.0508,2.1166,2.1166,0,0,0-.8672.3711c-.1221.0888-.249.19-.3789.3047Z" style="fill: #7f7f7f"/>
    <path d="M419.3961,72.1881l-4.7109,10.5625H413.17l4.6953-10.1094h-6.1563V71.3756h7.6875Z" style="fill: #7f7f7f"/>
    <g>
      <rect x="447.2849" y="62.9255" width="61.3655" height="29" style="fill: #d1f0cc"/>
      <g>
        <path d="M474.2555,85.1744H471.237V73.1754l-3.9532,1.418v-2.6l6.8106-2.46h.1611Z" style="fill: #4e9e3e"/>
        <path d="M489.0485,85.1744h-10.667v-2.041l5.06-5.4355q.59-.6446.999-1.1709a8.8751,8.8751,0,0,0,.6611-.9619,3.8426,3.8426,0,0,0,.3653-.8106,2.54,2.54,0,0,0,.1123-.73,2.6876,2.6876,0,0,0-.15-.9345,1.9706,1.9706,0,0,0-.4239-.6934,1.838,1.838,0,0,0-.6552-.4346,2.2817,2.2817,0,0,0-.8438-.15,2.33,2.33,0,0,0-1.8418.6875,2.8054,2.8054,0,0,0-.6074,1.9229h-2.9971a4.9548,4.9548,0,0,1,1.5205-3.5986,5.2521,5.2521,0,0,1,1.751-1.1016,6.73,6.73,0,0,1,4.3828-.0693,4.2291,4.2291,0,0,1,1.5362.9345,3.976,3.976,0,0,1,.9394,1.4444,5.1835,5.1835,0,0,1,.3223,1.8642,4.5109,4.5109,0,0,1-.2412,1.4766,6.3557,6.3557,0,0,1-.6875,1.3916,12.5556,12.5556,0,0,1-1.0694,1.4014q-.6225.7147-1.3857,1.499l-2.9434,3.1152h6.8643Z" style="fill: #4e9e3e"/>
      </g>
    </g>
  </g>
  <g>
    <circle cx="446.8008" cy="31.8821" r="9.1316" style="fill: #4e9e3e"/>
    <polygon points="450.767 28.05 445.458 33.68 443.193 31.558 441.846 33.01 443.511 34.553 445.593 36.511 447.551 34.428 452.249 29.43 450.767 28.05" style="fill: #fff"/>
  </g>
  <g>
    <circle cx="509.1341" cy="62" r="9.1316" style="fill: #4e9e3e"/>
    <polygon points="513.1 58.168 507.791 63.798 505.526 61.676 504.179 63.128 505.844 64.671 507.927 66.629 509.884 64.546 514.582 59.547 513.1 58.168" style="fill: #fff"/>
  </g>
</svg>
