<?xml version="1.0" encoding="utf-8"?>
<!-- Generator: Adobe Illustrator 23.0.3, SVG Export Plug-In . SVG Version: 6.00 Build 0)  -->
<svg version="1.1"
	 id="svg1825" xmlns:cc="http://web.resource.org/cc/" xmlns:dc="http://purl.org/dc/elements/1.1/" xmlns:inkscape="http://www.inkscape.org/namespaces/inkscape" xmlns:rdf="http://www.w3.org/1999/02/22-rdf-syntax-ns#" xmlns:sodipodi="http://inkscape.sourceforge.net/DTD/sodipodi-0.dtd" xmlns:svg="http://www.w3.org/2000/svg"
	 xmlns="http://www.w3.org/2000/svg" xmlns:xlink="http://www.w3.org/1999/xlink" x="0px" y="0px" viewBox="0 0 439.5 443.9"
	 style="enable-background:new 0 0 439.5 443.9;" xml:space="preserve">
<style type="text/css">
	.st0{fill:#FFFFFF;}
	.st1{fill:#408532;}
</style>
<sodipodi:namedview  bordercolor="#666666" borderopacity="1.0" id="base" inkscape:current-layer="svg1825" inkscape:cx="305.25953" inkscape:cy="417.84947" inkscape:pageopacity="0.0" inkscape:pageshadow="2" inkscape:window-height="543" inkscape:window-width="640" inkscape:window-x="0" inkscape:window-y="26" inkscape:zoom="0.43415836" pagecolor="#ffffff">
	</sodipodi:namedview>
<g id="g1835">
	<g id="g1837">
		<path id="path1839" class="st0" d="M219.7,443.9c121.4,0,219.7-99.4,219.7-221.9C439.5,99.4,341.1,0,219.7,0
			C98.4,0,0,99.4,0,221.9C0,344.5,98.4,443.9,219.7,443.9z"/>
		<path id="path1841" class="st0" d="M219.7,221.9"/>
	</g>
	<g id="g1843">
		<path id="path1845" class="st1" d="M219.7,392.7c93.4,0,169.1-76.5,169.1-170.8S313.1,51.1,219.7,51.1S50.6,127.6,50.6,221.9
			C50.7,316.3,126.4,392.7,219.7,392.7z"/>
		<path id="path1847" class="st1" d="M219.7,221.9"/>
	</g>
	<g id="g1849">
		<path id="path1851" class="st0" d="M197,300.3l49.5-0.1v-38.5c0-10.4,4.9-20.3,17.9-28.8s49.4-25.9,49.4-71.4
			c0-45.6-38.2-76.9-70.2-83.5c-32.1-6.6-66.8-2.3-91.5,24.8c-22.1,24.2-26.7,43.3-26.7,85.6h49.5v-9.8c0-22.5,2.6-46.3,34.8-52.8
			c17.5-3.5,34,2,43.8,11.5c11.2,10.9,11.2,35.5-6.5,47.7l-27.9,19c-16.6,10.4-22.1,22-22.1,39.1V300.3z"/>
		<g id="g1853">
			<path id="path1855" class="st0" d="M196.6,370.7v-51h50.2v51H196.6z"/>
			<path id="path1857" class="st0" d="M221.7,345.2"/>
		</g>
	</g>
</g>
</svg>
